PathFileType	4	(X/Y/Z)	HSS_squat3.trc
DataRate	CameraRate	NumFrames	NumMarkers	Units	OrigDataRate	OrigDataStartFrame	OrigNumFrames
120.0	120.0	5	44	mm	120.0	730	972
Frame#	Time		R.Shoulder		Offset		L.Shoulder		R.Elbow		R.Wrist.Radial		R.Wrist		R.Hand		L.Elbow		L.Wrist.Radial		L.Wrist		L.Hand		R.Hip		V.Sacral		L.PSIS		L.Hip		R.Thigh.Upper		R.Thigh.Front		R.Thigh.Rear		X.Shell.Lower.Thigh.Right		R.Knee.Lateral		R.Shank.Upper		R.Shank.Front		R.Shank.Rear		X.Shell.Lower.Shank.Right		R.Ankle.Lateral		R.Heel		R.Toe		L.Thigh.Upper		L.Thigh.Front		L.Thigh.Rear		X.Shell.Lower.Thigh.Left		L.Knee.Lateral		L.Shank.Upper		L.Shank.Front		L.Shank.Rear		X.Shell.Lower.Shank.Left		L.Ankle.Lateral		L.Heel		L.Toe		R.Troc		L.Troc		R.PSIS		L.ASIS		R.ASIS
			X1	Y1	Z1	X2	Y2	Z2	X3	Y3	Z3	X4	Y4	Z4	X5	Y5	Z5	X6	Y6	Z6	X7	Y7	Z7	X8	Y8	Z8	X9	Y9	Z9	X10	Y10	Z10	X11	Y11	Z11	X12	Y12	Z12	X13	Y13	Z13	X14	Y14	Z14	X15	Y15	Z15	X16	Y16	Z16	X17	Y17	Z17	X18	Y18	Z18	X19	Y19	Z19	X20	Y20	Z20	X21	Y21	Z21	X22	Y22	Z22	X23	Y23	Z23	X24	Y24	Z24	X25	Y25	Z25	X26	Y26	Z26	X27	Y27	Z27	X28	Y28	Z28	X29	Y29	Z29	X30	Y30	Z30	X31	Y31	Z31	X32	Y32	Z32	X33	Y33	Z33	X34	Y34	Z34	X35	Y35	Z35	X36	Y36	Z36	X37	Y37	Z37	X38	Y38	Z38	X39	Y39	Z39	X40	Y40	Z40	X41	Y41	Z41	X42	Y42	Z42	X43	Y43	Z43	X44	Y44	Z44

730	6.07500	120.58725	888.31879	-257.93390	-162.73907	850.90771	-120.11573	-187.53178	894.45557	-274.41324	260.51715	713.17627	-514.95917	62.53587	770.58374	-688.49365	115.54782	800.69598	-731.08179	35.84662	815.22894	-765.72101	-332.85135	737.55701	-542.39050	-119.52255	760.65479	-696.63171	-162.48380	804.67719	-735.32288	-77.05633	804.61682	-754.59332	107.53243	551.49304	14.52159	-42.36608	558.49951	152.23868	-80.07004	567.94373	143.02852	-194.69797	547.31451	26.13253	188.07500	505.62900	-117.04584	176.94492	536.04742	-158.50632	211.21346	484.91006	-150.68138	198.50581	509.54947	-188.21350	212.79773	433.96304	-287.35657	255.60052	319.64352	-257.02612	232.05783	268.18781	-262.13312	240.32957	302.45428	-212.41821	231.25490	256.18869	-214.45651	183.68927	71.90429	-93.88087	132.50847	35.47468	-45.15577	201.96236	33.67331	-236.19359	-243.20036	501.83142	-127.66311	-228.48589	520.71515	-179.96346	-264.97086	472.87320	-160.63087	-257.34470	498.50748	-196.73801	-246.63316	421.93332	-305.87143	-285.57446	272.93073	-224.41434	-267.40240	239.01323	-236.57608	-273.16632	253.92766	-177.96468	-274.52460	215.67915	-183.48811	-232.83466	72.69903	-109.56065	-185.42671	38.92305	-45.85999	-241.40254	32.49931	-242.20747	139.62904	519.59955	46.23052	-231.20804	502.05682	55.67555	-1.92099	568.44055	143.47083	-154.87019	508.48044	-22.00058	72.33459	516.39972	-24.00496
731	6.08333	120.67279	891.95996	-257.48203	-162.56665	854.61182	-119.73651	-187.45523	898.36572	-273.91864	260.70074	717.23047	-514.57129	62.77175	774.92889	-688.07611	115.58719	804.77240	-730.52228	35.99411	819.32397	-765.26080	-332.94128	741.78363	-542.01904	-120.08157	764.52960	-696.04913	-162.30168	808.70477	-734.77228	-77.02074	808.67285	-754.06287	107.42562	554.90631	13.24233	-42.34234	562.17511	151.89053	-80.01115	571.50671	142.70790	-194.74129	550.46600	25.76594	188.08075	507.02591	-117.31580	177.04962	537.31824	-159.00253	211.08206	486.09296	-150.87538	198.50462	510.62360	-188.62291	212.61540	434.17343	-287.29150	255.46964	319.78735	-256.80710	231.95993	268.28946	-262.01443	240.21359	302.58459	-212.30295	231.17885	256.32083	-214.35634	183.68930	71.90946	-93.89878	132.51538	35.48090	-45.16781	201.96901	33.67102	-236.21638	-243.20723	503.55371	-127.99663	-228.51791	522.17212	-180.44145	-264.90637	474.43100	-160.73582	-257.31494	499.76114	-197.00076	-246.43533	422.28397	-305.65900	-285.59409	273.06927	-224.19780	-267.42480	239.16615	-236.37589	-273.16763	254.02650	-177.77103	-274.55682	215.82935	-183.34158	-232.94368	72.69219	-109.55537	-185.51228	38.88754	-45.86893	-241.42282	32.49752	-242.21368	139.67308	522.40576	45.93607	-231.36887	505.33072	55.46057	-1.82048	571.97418	143.15062	-154.82796	511.38837	-22.09511	71.53845	519.97534	-24.72005
732	6.09167	120.82167	895.84631	-256.88174	-162.47408	858.32935	-119.28015	-187.34052	902.33447	-273.56329	260.95810	721.14441	-514.18640	62.98761	779.20404	-687.57996	115.69487	808.99188	-730.17523	36.10804	823.39496	-764.78864	-333.01154	746.11829	-541.64319	-119.93139	768.74915	-695.68665	-162.19067	812.95758	-734.34363	-76.82557	812.81940	-753.55292	107.61751	558.84119	11.66710	-42.32276	565.77686	151.60556	-80.00098	575.21570	142.43588	-194.67351	553.82983	25.37203	188.25435	508.76059	-117.73525	177.05466	538.59595	-159.50043	210.97363	487.40631	-151.27719	198.50816	511.55756	-188.86853	212.31343	434.40018	-287.34274	255.34357	319.91580	-256.66919	231.81197	268.42026	-261.94385	240.06609	302.68503	-212.19530	231.06564	256.47214	-214.26312	183.65700	71.92771	-93.91875	132.50244	35.46778	-45.16994	201.94797	33.67100	-236.22389	-243.23500	505.43039	-128.34502	-228.53249	523.64374	-180.92902	-264.85052	475.90634	-160.94238	-257.21158	501.05344	-197.36691	-246.28419	422.60178	-305.42871	-285.55618	273.21567	-224.01263	-267.40665	239.37131	-236.17633	-273.12610	254.16557	-177.61133	-274.58075	215.95976	-183.14928	-233.04422	72.70863	-109.52376	-185.63631	38.85347	-45.82501	-241.44348	32.51476	-242.22075	139.67520	525.20404	45.53609	-231.52927	508.72891	55.32800	-1.66942	575.49335	142.83119	-154.69351	514.46759	-22.21145	70.69667	524.60583	-25.79650
733	6.10000	120.92723	899.60565	-256.33130	-162.37329	862.17493	-118.81481	-187.26379	906.38477	-273.07660	261.24057	725.30432	-513.73560	63.18241	783.43195	-687.02246	115.92270	813.26874	-729.64929	36.15734	827.69763	-764.21661	-333.04694	750.48688	-541.22375	-119.28771	773.19135	-695.15125	-162.12685	817.23364	-733.94525	-76.71164	817.05872	-753.18329	107.78350	559.24567	13.83682	-42.25557	569.53632	151.29886	-79.85993	578.98334	141.99715	-194.64304	557.10626	24.93528	188.28691	510.30563	-118.15325	177.06125	539.89697	-160.05688	210.82265	488.61459	-151.41148	198.31592	512.66284	-189.25682	212.03249	434.58649	-287.27094	255.17978	320.06119	-256.58292	231.30789	268.89603	-261.87561	239.91483	302.80920	-212.08879	230.90346	256.61099	-214.13652	183.66309	71.92965	-93.89970	132.51988	35.48026	-45.16293	201.94887	33.67716	-236.21849	-243.19930	507.19379	-128.51711	-228.46898	525.10510	-181.43477	-264.72073	477.56442	-161.09752	-257.10590	502.32446	-197.72867	-246.12975	422.87408	-305.20218	-285.49619	273.38391	-223.81331	-267.37454	239.55017	-236.03696	-273.13571	254.35446	-177.43886	-274.55945	216.07463	-183.02277	-233.11829	72.70420	-109.48124	-185.77585	38.79619	-45.79721	-241.47801	32.51676	-242.19629	139.77023	528.21985	45.16976	-231.59854	512.17896	55.09382	-1.52328	579.14929	142.46338	-154.60349	517.45013	-22.35420	72.26086	523.47101	-24.00953
734	6.10833	121.10323	903.57501	-255.87190	-162.31041	866.06903	-118.36397	-187.20042	910.54730	-272.58313	261.53995	729.45868	-513.48578	62.82719	787.80170	-686.70135	116.03499	817.59424	-729.15033	36.37709	832.05768	-763.75714	-333.11935	754.95312	-540.90680	-119.25147	777.40649	-694.90552	-161.99631	821.56580	-733.54181	-76.55048	821.36212	-752.74329	107.77625	562.17688	13.24830	-42.08522	573.37579	151.09108	-79.89276	582.82721	141.75479	-194.70502	560.41003	24.63124	188.20023	511.82437	-118.54141	177.06818	541.16168	-160.67766	210.73302	489.98019	-151.47394	198.02380	513.90039	-189.70422	211.76453	434.76019	-287.10822	255.02151	320.20963	-256.50607	231.48753	268.67587	-261.61993	239.74066	302.90231	-211.97346	230.71573	256.72812	-214.01228	183.65414	71.95591	-93.88245	132.53700	35.48679	-45.16271	201.93736	33.66821	-236.20970	-243.09290	509.22461	-129.10895	-228.36305	526.59790	-181.97313	-264.58163	479.18604	-161.28970	-256.99677	503.64862	-198.08932	-245.81987	423.19336	-304.87650	-285.43494	273.54062	-223.60393	-267.30463	239.72372	-235.85730	-273.13538	254.53429	-177.21820	-274.54251	216.19505	-182.91162	-233.16953	72.69991	-109.48272	-185.88162	38.74433	-45.79501	-241.50179	32.52498	-242.20258	139.79456	531.14178	44.80212	-231.71103	515.69482	54.69335	-1.47050	582.89502	142.15883	-154.53004	520.57178	-22.39178	71.88670	526.32507	-24.18926
